#define 3ycuitex_width 16
#define 3ycuitex_height 16
static char 3ycuitex_bits[] = {
  0xC0, 0x03, 0x40, 0x02, 0x7C, 0x3E, 0x24, 0x24, 0x04, 0x20, 0x0C, 0x30, 
  0x87, 0xE1, 0x41, 0x82, 0x51, 0x82, 0x87, 0xE1, 0x0C, 0x30, 0x04, 0x20, 
  0x24, 0x24, 0x7C, 0x3E, 0x40, 0x02, 0xC0, 0x03, };
